<mxfile host="app.diagrams.net" agent="Mozilla/5.0 (Macintosh; Intel Mac OS X 10_15_7) AppleWebKit/537.36 (KHTML, like Gecko) Chrome/130.0.0.0 Safari/537.36" version="24.8.3">
  <diagram name="Page-1" id="uMUQG2mPH0FVotczIO6_">
    <mxGraphModel dx="2385" dy="1453" grid="1" gridSize="10" guides="1" tooltips="1" connect="1" arrows="1" fold="1" page="1" pageScale="1" pageWidth="827" pageHeight="1169" math="0" shadow="0">
      <root>
        <mxCell id="0" />
        <mxCell id="1" parent="0" />
        <mxCell id="w3fj2gbgNoyU7OF5bVDR-1" value="" style="endArrow=none;html=1;rounded=0;" parent="1" edge="1">
          <mxGeometry width="50" height="50" relative="1" as="geometry">
            <mxPoint x="160" y="320" as="sourcePoint" />
            <mxPoint x="200" y="320" as="targetPoint" />
          </mxGeometry>
        </mxCell>
        <mxCell id="w3fj2gbgNoyU7OF5bVDR-2" value="" style="endArrow=none;html=1;rounded=0;" parent="1" edge="1">
          <mxGeometry width="50" height="50" relative="1" as="geometry">
            <mxPoint x="200" y="320" as="sourcePoint" />
            <mxPoint x="200" y="280" as="targetPoint" />
          </mxGeometry>
        </mxCell>
        <mxCell id="w3fj2gbgNoyU7OF5bVDR-3" value="" style="endArrow=none;html=1;rounded=0;" parent="1" edge="1">
          <mxGeometry width="50" height="50" relative="1" as="geometry">
            <mxPoint x="200" y="280" as="sourcePoint" />
            <mxPoint x="240" y="280" as="targetPoint" />
          </mxGeometry>
        </mxCell>
        <mxCell id="w3fj2gbgNoyU7OF5bVDR-4" value="" style="endArrow=none;html=1;rounded=0;" parent="1" edge="1">
          <mxGeometry width="50" height="50" relative="1" as="geometry">
            <mxPoint x="240" y="320" as="sourcePoint" />
            <mxPoint x="240" y="280" as="targetPoint" />
          </mxGeometry>
        </mxCell>
        <mxCell id="w3fj2gbgNoyU7OF5bVDR-6" value="" style="endArrow=none;html=1;rounded=0;" parent="1" edge="1">
          <mxGeometry width="50" height="50" relative="1" as="geometry">
            <mxPoint x="240" y="320" as="sourcePoint" />
            <mxPoint x="280" y="320" as="targetPoint" />
          </mxGeometry>
        </mxCell>
        <mxCell id="w3fj2gbgNoyU7OF5bVDR-7" value="" style="endArrow=none;html=1;rounded=0;" parent="1" edge="1">
          <mxGeometry width="50" height="50" relative="1" as="geometry">
            <mxPoint x="280" y="320" as="sourcePoint" />
            <mxPoint x="280" y="280" as="targetPoint" />
          </mxGeometry>
        </mxCell>
        <mxCell id="w3fj2gbgNoyU7OF5bVDR-8" value="" style="endArrow=none;html=1;rounded=0;" parent="1" edge="1">
          <mxGeometry width="50" height="50" relative="1" as="geometry">
            <mxPoint x="280" y="280" as="sourcePoint" />
            <mxPoint x="320" y="280" as="targetPoint" />
          </mxGeometry>
        </mxCell>
        <mxCell id="w3fj2gbgNoyU7OF5bVDR-9" value="" style="endArrow=none;html=1;rounded=0;" parent="1" edge="1">
          <mxGeometry width="50" height="50" relative="1" as="geometry">
            <mxPoint x="320" y="320" as="sourcePoint" />
            <mxPoint x="320" y="280" as="targetPoint" />
          </mxGeometry>
        </mxCell>
        <mxCell id="w3fj2gbgNoyU7OF5bVDR-10" value="" style="endArrow=none;html=1;rounded=0;" parent="1" edge="1">
          <mxGeometry width="50" height="50" relative="1" as="geometry">
            <mxPoint x="320" y="320" as="sourcePoint" />
            <mxPoint x="360" y="320" as="targetPoint" />
          </mxGeometry>
        </mxCell>
        <mxCell id="w3fj2gbgNoyU7OF5bVDR-11" value="" style="endArrow=none;html=1;rounded=0;" parent="1" edge="1">
          <mxGeometry width="50" height="50" relative="1" as="geometry">
            <mxPoint x="360" y="320" as="sourcePoint" />
            <mxPoint x="360" y="280" as="targetPoint" />
          </mxGeometry>
        </mxCell>
        <mxCell id="w3fj2gbgNoyU7OF5bVDR-12" value="" style="endArrow=none;html=1;rounded=0;" parent="1" edge="1">
          <mxGeometry width="50" height="50" relative="1" as="geometry">
            <mxPoint x="360" y="280" as="sourcePoint" />
            <mxPoint x="400" y="280" as="targetPoint" />
          </mxGeometry>
        </mxCell>
        <mxCell id="w3fj2gbgNoyU7OF5bVDR-13" value="" style="endArrow=none;html=1;rounded=0;" parent="1" edge="1">
          <mxGeometry width="50" height="50" relative="1" as="geometry">
            <mxPoint x="400" y="320" as="sourcePoint" />
            <mxPoint x="400" y="280" as="targetPoint" />
          </mxGeometry>
        </mxCell>
        <mxCell id="w3fj2gbgNoyU7OF5bVDR-14" value="" style="endArrow=none;html=1;rounded=0;" parent="1" edge="1">
          <mxGeometry width="50" height="50" relative="1" as="geometry">
            <mxPoint x="400" y="320" as="sourcePoint" />
            <mxPoint x="440" y="320" as="targetPoint" />
          </mxGeometry>
        </mxCell>
        <mxCell id="w3fj2gbgNoyU7OF5bVDR-15" value="" style="endArrow=none;html=1;rounded=0;" parent="1" edge="1">
          <mxGeometry width="50" height="50" relative="1" as="geometry">
            <mxPoint x="440" y="320" as="sourcePoint" />
            <mxPoint x="440" y="280" as="targetPoint" />
          </mxGeometry>
        </mxCell>
        <mxCell id="w3fj2gbgNoyU7OF5bVDR-16" value="" style="endArrow=none;html=1;rounded=0;" parent="1" edge="1">
          <mxGeometry width="50" height="50" relative="1" as="geometry">
            <mxPoint x="440" y="280" as="sourcePoint" />
            <mxPoint x="480" y="280" as="targetPoint" />
          </mxGeometry>
        </mxCell>
        <mxCell id="w3fj2gbgNoyU7OF5bVDR-17" value="" style="endArrow=none;html=1;rounded=0;" parent="1" edge="1">
          <mxGeometry width="50" height="50" relative="1" as="geometry">
            <mxPoint x="480" y="320" as="sourcePoint" />
            <mxPoint x="480" y="280" as="targetPoint" />
          </mxGeometry>
        </mxCell>
        <mxCell id="w3fj2gbgNoyU7OF5bVDR-18" value="" style="endArrow=none;html=1;rounded=0;" parent="1" edge="1">
          <mxGeometry width="50" height="50" relative="1" as="geometry">
            <mxPoint x="480" y="320" as="sourcePoint" />
            <mxPoint x="520" y="320" as="targetPoint" />
          </mxGeometry>
        </mxCell>
        <mxCell id="w3fj2gbgNoyU7OF5bVDR-19" value="" style="endArrow=none;html=1;rounded=0;" parent="1" edge="1">
          <mxGeometry width="50" height="50" relative="1" as="geometry">
            <mxPoint x="520" y="320" as="sourcePoint" />
            <mxPoint x="520" y="280" as="targetPoint" />
          </mxGeometry>
        </mxCell>
        <mxCell id="w3fj2gbgNoyU7OF5bVDR-20" value="" style="endArrow=none;html=1;rounded=0;" parent="1" edge="1">
          <mxGeometry width="50" height="50" relative="1" as="geometry">
            <mxPoint x="520" y="280" as="sourcePoint" />
            <mxPoint x="560" y="280" as="targetPoint" />
          </mxGeometry>
        </mxCell>
        <mxCell id="w3fj2gbgNoyU7OF5bVDR-21" value="" style="endArrow=none;html=1;rounded=0;" parent="1" edge="1">
          <mxGeometry width="50" height="50" relative="1" as="geometry">
            <mxPoint x="560" y="320" as="sourcePoint" />
            <mxPoint x="560" y="280" as="targetPoint" />
          </mxGeometry>
        </mxCell>
        <mxCell id="w3fj2gbgNoyU7OF5bVDR-22" value="" style="endArrow=none;html=1;rounded=0;" parent="1" edge="1">
          <mxGeometry width="50" height="50" relative="1" as="geometry">
            <mxPoint x="560" y="320" as="sourcePoint" />
            <mxPoint x="600" y="320" as="targetPoint" />
          </mxGeometry>
        </mxCell>
        <mxCell id="w3fj2gbgNoyU7OF5bVDR-23" value="" style="endArrow=none;html=1;rounded=0;" parent="1" edge="1">
          <mxGeometry width="50" height="50" relative="1" as="geometry">
            <mxPoint x="600" y="320" as="sourcePoint" />
            <mxPoint x="600" y="280" as="targetPoint" />
          </mxGeometry>
        </mxCell>
        <mxCell id="w3fj2gbgNoyU7OF5bVDR-24" value="" style="endArrow=none;html=1;rounded=0;" parent="1" edge="1">
          <mxGeometry width="50" height="50" relative="1" as="geometry">
            <mxPoint x="600" y="280" as="sourcePoint" />
            <mxPoint x="640" y="280" as="targetPoint" />
          </mxGeometry>
        </mxCell>
        <mxCell id="w3fj2gbgNoyU7OF5bVDR-25" value="" style="endArrow=none;html=1;rounded=0;" parent="1" edge="1">
          <mxGeometry width="50" height="50" relative="1" as="geometry">
            <mxPoint x="640" y="320" as="sourcePoint" />
            <mxPoint x="640" y="280" as="targetPoint" />
          </mxGeometry>
        </mxCell>
        <mxCell id="w3fj2gbgNoyU7OF5bVDR-26" value="" style="endArrow=none;html=1;rounded=0;" parent="1" edge="1">
          <mxGeometry width="50" height="50" relative="1" as="geometry">
            <mxPoint x="640" y="320" as="sourcePoint" />
            <mxPoint x="680" y="320" as="targetPoint" />
          </mxGeometry>
        </mxCell>
        <mxCell id="w3fj2gbgNoyU7OF5bVDR-48" value="&lt;font style=&quot;font-size: 24px;&quot;&gt;CLK&lt;/font&gt;" style="text;html=1;align=center;verticalAlign=middle;whiteSpace=wrap;rounded=0;" parent="1" vertex="1">
          <mxGeometry x="90" y="300" width="60" height="30" as="geometry" />
        </mxCell>
        <mxCell id="w3fj2gbgNoyU7OF5bVDR-49" value="" style="endArrow=none;html=1;rounded=0;" parent="1" edge="1">
          <mxGeometry width="50" height="50" relative="1" as="geometry">
            <mxPoint x="680" y="320" as="sourcePoint" />
            <mxPoint x="680" y="280" as="targetPoint" />
          </mxGeometry>
        </mxCell>
        <mxCell id="w3fj2gbgNoyU7OF5bVDR-50" value="" style="endArrow=none;html=1;rounded=0;" parent="1" edge="1">
          <mxGeometry width="50" height="50" relative="1" as="geometry">
            <mxPoint x="680" y="280" as="sourcePoint" />
            <mxPoint x="720" y="280" as="targetPoint" />
          </mxGeometry>
        </mxCell>
        <mxCell id="w3fj2gbgNoyU7OF5bVDR-51" value="" style="endArrow=none;html=1;rounded=0;" parent="1" edge="1">
          <mxGeometry width="50" height="50" relative="1" as="geometry">
            <mxPoint x="720" y="320" as="sourcePoint" />
            <mxPoint x="720" y="280" as="targetPoint" />
          </mxGeometry>
        </mxCell>
        <mxCell id="w3fj2gbgNoyU7OF5bVDR-52" value="" style="endArrow=none;html=1;rounded=0;" parent="1" edge="1">
          <mxGeometry width="50" height="50" relative="1" as="geometry">
            <mxPoint x="720" y="320" as="sourcePoint" />
            <mxPoint x="760" y="320" as="targetPoint" />
          </mxGeometry>
        </mxCell>
        <mxCell id="w3fj2gbgNoyU7OF5bVDR-53" value="" style="endArrow=none;html=1;rounded=0;" parent="1" edge="1">
          <mxGeometry width="50" height="50" relative="1" as="geometry">
            <mxPoint x="760" y="320" as="sourcePoint" />
            <mxPoint x="760" y="280" as="targetPoint" />
          </mxGeometry>
        </mxCell>
        <mxCell id="w3fj2gbgNoyU7OF5bVDR-54" value="" style="endArrow=none;html=1;rounded=0;" parent="1" edge="1">
          <mxGeometry width="50" height="50" relative="1" as="geometry">
            <mxPoint x="760" y="280" as="sourcePoint" />
            <mxPoint x="800" y="280" as="targetPoint" />
          </mxGeometry>
        </mxCell>
        <mxCell id="w3fj2gbgNoyU7OF5bVDR-55" value="" style="endArrow=none;html=1;rounded=0;" parent="1" edge="1">
          <mxGeometry width="50" height="50" relative="1" as="geometry">
            <mxPoint x="800" y="320" as="sourcePoint" />
            <mxPoint x="800" y="280" as="targetPoint" />
          </mxGeometry>
        </mxCell>
        <mxCell id="w3fj2gbgNoyU7OF5bVDR-61" value="&lt;font style=&quot;font-size: 24px;&quot;&gt;DeltaX&lt;/font&gt;" style="text;html=1;align=center;verticalAlign=middle;whiteSpace=wrap;rounded=0;" parent="1" vertex="1">
          <mxGeometry x="90" y="380" width="60" height="30" as="geometry" />
        </mxCell>
        <mxCell id="AQtglL6U4FNc2CjWORVU-33" value="" style="endArrow=none;html=1;rounded=0;" parent="1" edge="1">
          <mxGeometry width="50" height="50" relative="1" as="geometry">
            <mxPoint x="160" y="401" as="sourcePoint" />
            <mxPoint x="200" y="401" as="targetPoint" />
          </mxGeometry>
        </mxCell>
        <mxCell id="AQtglL6U4FNc2CjWORVU-34" value="" style="endArrow=none;html=1;rounded=0;" parent="1" edge="1">
          <mxGeometry width="50" height="50" relative="1" as="geometry">
            <mxPoint x="200" y="401" as="sourcePoint" />
            <mxPoint x="200" y="361" as="targetPoint" />
          </mxGeometry>
        </mxCell>
        <mxCell id="AQtglL6U4FNc2CjWORVU-35" value="" style="endArrow=none;html=1;rounded=0;" parent="1" edge="1">
          <mxGeometry width="50" height="50" relative="1" as="geometry">
            <mxPoint x="200" y="361" as="sourcePoint" />
            <mxPoint x="280" y="361" as="targetPoint" />
          </mxGeometry>
        </mxCell>
        <mxCell id="AQtglL6U4FNc2CjWORVU-67" value="" style="endArrow=none;html=1;rounded=0;" parent="1" edge="1">
          <mxGeometry width="50" height="50" relative="1" as="geometry">
            <mxPoint x="280" y="361" as="sourcePoint" />
            <mxPoint x="360" y="361" as="targetPoint" />
          </mxGeometry>
        </mxCell>
        <mxCell id="AQtglL6U4FNc2CjWORVU-70" value="" style="endArrow=none;html=1;rounded=0;" parent="1" edge="1">
          <mxGeometry width="50" height="50" relative="1" as="geometry">
            <mxPoint x="360" y="361" as="sourcePoint" />
            <mxPoint x="440" y="361" as="targetPoint" />
          </mxGeometry>
        </mxCell>
        <mxCell id="AQtglL6U4FNc2CjWORVU-72" value="" style="endArrow=none;html=1;rounded=0;" parent="1" edge="1">
          <mxGeometry width="50" height="50" relative="1" as="geometry">
            <mxPoint x="440" y="361" as="sourcePoint" />
            <mxPoint x="520" y="361" as="targetPoint" />
          </mxGeometry>
        </mxCell>
        <mxCell id="AQtglL6U4FNc2CjWORVU-74" value="" style="endArrow=none;html=1;rounded=0;" parent="1" edge="1">
          <mxGeometry width="50" height="50" relative="1" as="geometry">
            <mxPoint x="520" y="361" as="sourcePoint" />
            <mxPoint x="600" y="361" as="targetPoint" />
          </mxGeometry>
        </mxCell>
        <mxCell id="AQtglL6U4FNc2CjWORVU-76" value="" style="endArrow=none;html=1;rounded=0;" parent="1" edge="1">
          <mxGeometry width="50" height="50" relative="1" as="geometry">
            <mxPoint x="600" y="361" as="sourcePoint" />
            <mxPoint x="680" y="361" as="targetPoint" />
          </mxGeometry>
        </mxCell>
        <mxCell id="AQtglL6U4FNc2CjWORVU-78" value="" style="endArrow=none;html=1;rounded=0;" parent="1" edge="1">
          <mxGeometry width="50" height="50" relative="1" as="geometry">
            <mxPoint x="680" y="361" as="sourcePoint" />
            <mxPoint x="760" y="361" as="targetPoint" />
          </mxGeometry>
        </mxCell>
        <mxCell id="AQtglL6U4FNc2CjWORVU-80" value="" style="endArrow=none;html=1;rounded=0;" parent="1" edge="1">
          <mxGeometry width="50" height="50" relative="1" as="geometry">
            <mxPoint x="760" y="361" as="sourcePoint" />
            <mxPoint x="1000" y="361" as="targetPoint" />
          </mxGeometry>
        </mxCell>
        <mxCell id="AQtglL6U4FNc2CjWORVU-82" value="" style="endArrow=none;html=1;rounded=0;" parent="1" edge="1">
          <mxGeometry width="50" height="50" relative="1" as="geometry">
            <mxPoint x="800" y="320" as="sourcePoint" />
            <mxPoint x="840" y="320" as="targetPoint" />
          </mxGeometry>
        </mxCell>
        <mxCell id="AQtglL6U4FNc2CjWORVU-90" value="&lt;font style=&quot;font-size: 24px;&quot;&gt;0x1&lt;/font&gt;" style="text;html=1;align=center;verticalAlign=middle;resizable=0;points=[];autosize=1;strokeColor=none;fillColor=none;" parent="1" vertex="1">
          <mxGeometry x="560" y="370" width="60" height="40" as="geometry" />
        </mxCell>
        <mxCell id="AQtglL6U4FNc2CjWORVU-93" value="&lt;font style=&quot;font-size: 72px;&quot;&gt;...&lt;/font&gt;" style="text;html=1;align=center;verticalAlign=middle;resizable=0;points=[];autosize=1;strokeColor=none;fillColor=none;" parent="1" vertex="1">
          <mxGeometry x="1029" y="321" width="80" height="100" as="geometry" />
        </mxCell>
        <mxCell id="AQtglL6U4FNc2CjWORVU-94" value="&lt;font style=&quot;font-size: 72px;&quot;&gt;...&lt;/font&gt;" style="text;html=1;align=center;verticalAlign=middle;resizable=0;points=[];autosize=1;strokeColor=none;fillColor=none;" parent="1" vertex="1">
          <mxGeometry x="1024" y="240" width="80" height="100" as="geometry" />
        </mxCell>
        <mxCell id="AQtglL6U4FNc2CjWORVU-96" value="" style="endArrow=none;html=1;rounded=0;" parent="1" edge="1">
          <mxGeometry width="50" height="50" relative="1" as="geometry">
            <mxPoint x="1125" y="320" as="sourcePoint" />
            <mxPoint x="1125" y="280" as="targetPoint" />
          </mxGeometry>
        </mxCell>
        <mxCell id="AQtglL6U4FNc2CjWORVU-97" value="" style="endArrow=none;html=1;rounded=0;" parent="1" edge="1">
          <mxGeometry width="50" height="50" relative="1" as="geometry">
            <mxPoint x="1125" y="280" as="sourcePoint" />
            <mxPoint x="1165" y="280" as="targetPoint" />
          </mxGeometry>
        </mxCell>
        <mxCell id="AQtglL6U4FNc2CjWORVU-98" value="" style="endArrow=none;html=1;rounded=0;" parent="1" edge="1">
          <mxGeometry width="50" height="50" relative="1" as="geometry">
            <mxPoint x="1165" y="320" as="sourcePoint" />
            <mxPoint x="1165" y="280" as="targetPoint" />
          </mxGeometry>
        </mxCell>
        <mxCell id="AQtglL6U4FNc2CjWORVU-99" value="" style="endArrow=none;html=1;rounded=0;" parent="1" edge="1">
          <mxGeometry width="50" height="50" relative="1" as="geometry">
            <mxPoint x="1165" y="320" as="sourcePoint" />
            <mxPoint x="1205" y="320" as="targetPoint" />
          </mxGeometry>
        </mxCell>
        <mxCell id="AQtglL6U4FNc2CjWORVU-100" value="" style="endArrow=none;html=1;rounded=0;" parent="1" edge="1">
          <mxGeometry width="50" height="50" relative="1" as="geometry">
            <mxPoint x="1205" y="320" as="sourcePoint" />
            <mxPoint x="1205" y="280" as="targetPoint" />
          </mxGeometry>
        </mxCell>
        <mxCell id="AQtglL6U4FNc2CjWORVU-101" value="" style="endArrow=none;html=1;rounded=0;" parent="1" edge="1">
          <mxGeometry width="50" height="50" relative="1" as="geometry">
            <mxPoint x="1205" y="280" as="sourcePoint" />
            <mxPoint x="1245" y="280" as="targetPoint" />
          </mxGeometry>
        </mxCell>
        <mxCell id="AQtglL6U4FNc2CjWORVU-102" value="" style="endArrow=none;html=1;rounded=0;" parent="1" edge="1">
          <mxGeometry width="50" height="50" relative="1" as="geometry">
            <mxPoint x="1245" y="320" as="sourcePoint" />
            <mxPoint x="1245" y="280" as="targetPoint" />
          </mxGeometry>
        </mxCell>
        <mxCell id="AQtglL6U4FNc2CjWORVU-103" value="" style="endArrow=none;html=1;rounded=0;" parent="1" edge="1">
          <mxGeometry width="50" height="50" relative="1" as="geometry">
            <mxPoint x="1245" y="320" as="sourcePoint" />
            <mxPoint x="1285" y="320" as="targetPoint" />
          </mxGeometry>
        </mxCell>
        <mxCell id="AQtglL6U4FNc2CjWORVU-104" value="" style="endArrow=none;html=1;rounded=0;" parent="1" edge="1">
          <mxGeometry width="50" height="50" relative="1" as="geometry">
            <mxPoint x="1285" y="320" as="sourcePoint" />
            <mxPoint x="1285" y="280" as="targetPoint" />
          </mxGeometry>
        </mxCell>
        <mxCell id="AQtglL6U4FNc2CjWORVU-105" value="" style="endArrow=none;html=1;rounded=0;" parent="1" edge="1">
          <mxGeometry width="50" height="50" relative="1" as="geometry">
            <mxPoint x="1285" y="280" as="sourcePoint" />
            <mxPoint x="1325" y="280" as="targetPoint" />
          </mxGeometry>
        </mxCell>
        <mxCell id="AQtglL6U4FNc2CjWORVU-106" value="" style="endArrow=none;html=1;rounded=0;" parent="1" edge="1">
          <mxGeometry width="50" height="50" relative="1" as="geometry">
            <mxPoint x="1325" y="320" as="sourcePoint" />
            <mxPoint x="1325" y="280" as="targetPoint" />
          </mxGeometry>
        </mxCell>
        <mxCell id="AQtglL6U4FNc2CjWORVU-107" value="" style="endArrow=none;html=1;rounded=0;" parent="1" edge="1">
          <mxGeometry width="50" height="50" relative="1" as="geometry">
            <mxPoint x="1325" y="320" as="sourcePoint" />
            <mxPoint x="1365" y="320" as="targetPoint" />
          </mxGeometry>
        </mxCell>
        <mxCell id="AQtglL6U4FNc2CjWORVU-108" value="" style="endArrow=none;html=1;rounded=0;" parent="1" edge="1">
          <mxGeometry width="50" height="50" relative="1" as="geometry">
            <mxPoint x="1365" y="320" as="sourcePoint" />
            <mxPoint x="1365" y="280" as="targetPoint" />
          </mxGeometry>
        </mxCell>
        <mxCell id="AQtglL6U4FNc2CjWORVU-110" value="" style="endArrow=none;html=1;rounded=0;" parent="1" edge="1">
          <mxGeometry width="50" height="50" relative="1" as="geometry">
            <mxPoint x="1125" y="401" as="sourcePoint" />
            <mxPoint x="1125" y="361" as="targetPoint" />
          </mxGeometry>
        </mxCell>
        <mxCell id="AQtglL6U4FNc2CjWORVU-111" value="" style="endArrow=none;html=1;rounded=0;" parent="1" edge="1">
          <mxGeometry width="50" height="50" relative="1" as="geometry">
            <mxPoint x="1125" y="361" as="sourcePoint" />
            <mxPoint x="1205" y="361" as="targetPoint" />
          </mxGeometry>
        </mxCell>
        <mxCell id="AQtglL6U4FNc2CjWORVU-113" value="" style="endArrow=none;html=1;rounded=0;" parent="1" edge="1">
          <mxGeometry width="50" height="50" relative="1" as="geometry">
            <mxPoint x="1205" y="361" as="sourcePoint" />
            <mxPoint x="1285" y="361" as="targetPoint" />
          </mxGeometry>
        </mxCell>
        <mxCell id="AQtglL6U4FNc2CjWORVU-115" value="" style="endArrow=none;html=1;rounded=0;" parent="1" edge="1">
          <mxGeometry width="50" height="50" relative="1" as="geometry">
            <mxPoint x="1285" y="361" as="sourcePoint" />
            <mxPoint x="1840" y="360" as="targetPoint" />
          </mxGeometry>
        </mxCell>
        <mxCell id="AQtglL6U4FNc2CjWORVU-119" value="&lt;font style=&quot;font-size: 24px;&quot;&gt;0x1&lt;/font&gt;" style="text;html=1;align=center;verticalAlign=middle;resizable=0;points=[];autosize=1;strokeColor=none;fillColor=none;" parent="1" vertex="1">
          <mxGeometry x="1410" y="375" width="60" height="40" as="geometry" />
        </mxCell>
        <mxCell id="AQtglL6U4FNc2CjWORVU-134" value="" style="endArrow=none;html=1;rounded=0;" parent="1" edge="1">
          <mxGeometry width="50" height="50" relative="1" as="geometry">
            <mxPoint x="1365" y="321" as="sourcePoint" />
            <mxPoint x="1365" y="281" as="targetPoint" />
          </mxGeometry>
        </mxCell>
        <mxCell id="AQtglL6U4FNc2CjWORVU-135" value="" style="endArrow=none;html=1;rounded=0;" parent="1" edge="1">
          <mxGeometry width="50" height="50" relative="1" as="geometry">
            <mxPoint x="1365" y="281" as="sourcePoint" />
            <mxPoint x="1405" y="281" as="targetPoint" />
          </mxGeometry>
        </mxCell>
        <mxCell id="AQtglL6U4FNc2CjWORVU-136" value="" style="endArrow=none;html=1;rounded=0;" parent="1" edge="1">
          <mxGeometry width="50" height="50" relative="1" as="geometry">
            <mxPoint x="1405" y="321" as="sourcePoint" />
            <mxPoint x="1405" y="281" as="targetPoint" />
          </mxGeometry>
        </mxCell>
        <mxCell id="AQtglL6U4FNc2CjWORVU-137" value="" style="endArrow=none;html=1;rounded=0;" parent="1" edge="1">
          <mxGeometry width="50" height="50" relative="1" as="geometry">
            <mxPoint x="1405" y="321" as="sourcePoint" />
            <mxPoint x="1445" y="321" as="targetPoint" />
          </mxGeometry>
        </mxCell>
        <mxCell id="AQtglL6U4FNc2CjWORVU-138" value="" style="endArrow=none;html=1;rounded=0;" parent="1" edge="1">
          <mxGeometry width="50" height="50" relative="1" as="geometry">
            <mxPoint x="1445" y="321" as="sourcePoint" />
            <mxPoint x="1445" y="281" as="targetPoint" />
          </mxGeometry>
        </mxCell>
        <mxCell id="AQtglL6U4FNc2CjWORVU-139" value="" style="endArrow=none;html=1;rounded=0;" parent="1" edge="1">
          <mxGeometry width="50" height="50" relative="1" as="geometry">
            <mxPoint x="1445" y="281" as="sourcePoint" />
            <mxPoint x="1485" y="281" as="targetPoint" />
          </mxGeometry>
        </mxCell>
        <mxCell id="AQtglL6U4FNc2CjWORVU-140" value="" style="endArrow=none;html=1;rounded=0;" parent="1" edge="1">
          <mxGeometry width="50" height="50" relative="1" as="geometry">
            <mxPoint x="1485" y="321" as="sourcePoint" />
            <mxPoint x="1485" y="281" as="targetPoint" />
          </mxGeometry>
        </mxCell>
        <mxCell id="AQtglL6U4FNc2CjWORVU-141" value="" style="endArrow=none;html=1;rounded=0;" parent="1" edge="1">
          <mxGeometry width="50" height="50" relative="1" as="geometry">
            <mxPoint x="1485" y="321" as="sourcePoint" />
            <mxPoint x="1520" y="320" as="targetPoint" />
          </mxGeometry>
        </mxCell>
        <mxCell id="UhTGrk6t8Puw2qYGNg0s-1" value="&lt;font style=&quot;font-size: 24px;&quot;&gt;DeltaY&lt;/font&gt;" style="text;html=1;align=center;verticalAlign=middle;whiteSpace=wrap;rounded=0;" vertex="1" parent="1">
          <mxGeometry x="89" y="458" width="60" height="30" as="geometry" />
        </mxCell>
        <mxCell id="UhTGrk6t8Puw2qYGNg0s-2" value="" style="endArrow=none;html=1;rounded=0;" edge="1" parent="1">
          <mxGeometry width="50" height="50" relative="1" as="geometry">
            <mxPoint x="159" y="479" as="sourcePoint" />
            <mxPoint x="199" y="479" as="targetPoint" />
          </mxGeometry>
        </mxCell>
        <mxCell id="UhTGrk6t8Puw2qYGNg0s-3" value="" style="endArrow=none;html=1;rounded=0;" edge="1" parent="1">
          <mxGeometry width="50" height="50" relative="1" as="geometry">
            <mxPoint x="199" y="479" as="sourcePoint" />
            <mxPoint x="199" y="439" as="targetPoint" />
          </mxGeometry>
        </mxCell>
        <mxCell id="UhTGrk6t8Puw2qYGNg0s-4" value="" style="endArrow=none;html=1;rounded=0;" edge="1" parent="1">
          <mxGeometry width="50" height="50" relative="1" as="geometry">
            <mxPoint x="199" y="439" as="sourcePoint" />
            <mxPoint x="279" y="439" as="targetPoint" />
          </mxGeometry>
        </mxCell>
        <mxCell id="UhTGrk6t8Puw2qYGNg0s-6" value="" style="endArrow=none;html=1;rounded=0;" edge="1" parent="1">
          <mxGeometry width="50" height="50" relative="1" as="geometry">
            <mxPoint x="279" y="439" as="sourcePoint" />
            <mxPoint x="359" y="439" as="targetPoint" />
          </mxGeometry>
        </mxCell>
        <mxCell id="UhTGrk6t8Puw2qYGNg0s-8" value="" style="endArrow=none;html=1;rounded=0;" edge="1" parent="1">
          <mxGeometry width="50" height="50" relative="1" as="geometry">
            <mxPoint x="359" y="439" as="sourcePoint" />
            <mxPoint x="439" y="439" as="targetPoint" />
          </mxGeometry>
        </mxCell>
        <mxCell id="UhTGrk6t8Puw2qYGNg0s-10" value="" style="endArrow=none;html=1;rounded=0;" edge="1" parent="1">
          <mxGeometry width="50" height="50" relative="1" as="geometry">
            <mxPoint x="439" y="439" as="sourcePoint" />
            <mxPoint x="519" y="439" as="targetPoint" />
          </mxGeometry>
        </mxCell>
        <mxCell id="UhTGrk6t8Puw2qYGNg0s-12" value="" style="endArrow=none;html=1;rounded=0;" edge="1" parent="1">
          <mxGeometry width="50" height="50" relative="1" as="geometry">
            <mxPoint x="519" y="439" as="sourcePoint" />
            <mxPoint x="599" y="439" as="targetPoint" />
          </mxGeometry>
        </mxCell>
        <mxCell id="UhTGrk6t8Puw2qYGNg0s-14" value="" style="endArrow=none;html=1;rounded=0;" edge="1" parent="1">
          <mxGeometry width="50" height="50" relative="1" as="geometry">
            <mxPoint x="599" y="439" as="sourcePoint" />
            <mxPoint x="679" y="439" as="targetPoint" />
          </mxGeometry>
        </mxCell>
        <mxCell id="UhTGrk6t8Puw2qYGNg0s-16" value="" style="endArrow=none;html=1;rounded=0;" edge="1" parent="1">
          <mxGeometry width="50" height="50" relative="1" as="geometry">
            <mxPoint x="679" y="439" as="sourcePoint" />
            <mxPoint x="759" y="439" as="targetPoint" />
          </mxGeometry>
        </mxCell>
        <mxCell id="UhTGrk6t8Puw2qYGNg0s-18" value="" style="endArrow=none;html=1;rounded=0;" edge="1" parent="1">
          <mxGeometry width="50" height="50" relative="1" as="geometry">
            <mxPoint x="759" y="439" as="sourcePoint" />
            <mxPoint x="1000" y="440" as="targetPoint" />
          </mxGeometry>
        </mxCell>
        <mxCell id="UhTGrk6t8Puw2qYGNg0s-21" value="&lt;font style=&quot;font-size: 24px;&quot;&gt;0x1&lt;/font&gt;" style="text;html=1;align=center;verticalAlign=middle;resizable=0;points=[];autosize=1;strokeColor=none;fillColor=none;" vertex="1" parent="1">
          <mxGeometry x="560" y="448" width="60" height="40" as="geometry" />
        </mxCell>
        <mxCell id="UhTGrk6t8Puw2qYGNg0s-28" value="" style="endArrow=none;html=1;rounded=0;" edge="1" parent="1">
          <mxGeometry width="50" height="50" relative="1" as="geometry">
            <mxPoint x="1124" y="479" as="sourcePoint" />
            <mxPoint x="1124" y="439" as="targetPoint" />
          </mxGeometry>
        </mxCell>
        <mxCell id="UhTGrk6t8Puw2qYGNg0s-29" value="" style="endArrow=none;html=1;rounded=0;" edge="1" parent="1">
          <mxGeometry width="50" height="50" relative="1" as="geometry">
            <mxPoint x="1124" y="439" as="sourcePoint" />
            <mxPoint x="1204" y="439" as="targetPoint" />
          </mxGeometry>
        </mxCell>
        <mxCell id="UhTGrk6t8Puw2qYGNg0s-31" value="" style="endArrow=none;html=1;rounded=0;" edge="1" parent="1">
          <mxGeometry width="50" height="50" relative="1" as="geometry">
            <mxPoint x="1204" y="439" as="sourcePoint" />
            <mxPoint x="1284" y="439" as="targetPoint" />
          </mxGeometry>
        </mxCell>
        <mxCell id="UhTGrk6t8Puw2qYGNg0s-33" value="" style="endArrow=none;html=1;rounded=0;" edge="1" parent="1">
          <mxGeometry width="50" height="50" relative="1" as="geometry">
            <mxPoint x="1284" y="439" as="sourcePoint" />
            <mxPoint x="1840" y="440" as="targetPoint" />
          </mxGeometry>
        </mxCell>
        <mxCell id="UhTGrk6t8Puw2qYGNg0s-39" value="&lt;font style=&quot;font-size: 24px;&quot;&gt;Out&lt;/font&gt;" style="text;html=1;align=center;verticalAlign=middle;whiteSpace=wrap;rounded=0;" vertex="1" parent="1">
          <mxGeometry x="91" y="700" width="60" height="30" as="geometry" />
        </mxCell>
        <mxCell id="UhTGrk6t8Puw2qYGNg0s-40" value="" style="endArrow=none;html=1;rounded=0;" edge="1" parent="1">
          <mxGeometry width="50" height="50" relative="1" as="geometry">
            <mxPoint x="161" y="721" as="sourcePoint" />
            <mxPoint x="360" y="721" as="targetPoint" />
          </mxGeometry>
        </mxCell>
        <mxCell id="UhTGrk6t8Puw2qYGNg0s-41" value="" style="endArrow=none;html=1;rounded=0;" edge="1" parent="1">
          <mxGeometry width="50" height="50" relative="1" as="geometry">
            <mxPoint x="359" y="721" as="sourcePoint" />
            <mxPoint x="359" y="681" as="targetPoint" />
          </mxGeometry>
        </mxCell>
        <mxCell id="UhTGrk6t8Puw2qYGNg0s-42" value="" style="endArrow=none;html=1;rounded=0;" edge="1" parent="1">
          <mxGeometry width="50" height="50" relative="1" as="geometry">
            <mxPoint x="359" y="681" as="sourcePoint" />
            <mxPoint x="439" y="681" as="targetPoint" />
          </mxGeometry>
        </mxCell>
        <mxCell id="UhTGrk6t8Puw2qYGNg0s-43" value="" style="endArrow=none;html=1;rounded=0;" edge="1" parent="1">
          <mxGeometry width="50" height="50" relative="1" as="geometry">
            <mxPoint x="439" y="721" as="sourcePoint" />
            <mxPoint x="439" y="681" as="targetPoint" />
          </mxGeometry>
        </mxCell>
        <mxCell id="UhTGrk6t8Puw2qYGNg0s-44" value="" style="endArrow=none;html=1;rounded=0;" edge="1" parent="1">
          <mxGeometry width="50" height="50" relative="1" as="geometry">
            <mxPoint x="439" y="681" as="sourcePoint" />
            <mxPoint x="519" y="681" as="targetPoint" />
          </mxGeometry>
        </mxCell>
        <mxCell id="UhTGrk6t8Puw2qYGNg0s-45" value="" style="endArrow=none;html=1;rounded=0;" edge="1" parent="1">
          <mxGeometry width="50" height="50" relative="1" as="geometry">
            <mxPoint x="519" y="721" as="sourcePoint" />
            <mxPoint x="519" y="681" as="targetPoint" />
          </mxGeometry>
        </mxCell>
        <mxCell id="UhTGrk6t8Puw2qYGNg0s-46" value="" style="endArrow=none;html=1;rounded=0;" edge="1" parent="1">
          <mxGeometry width="50" height="50" relative="1" as="geometry">
            <mxPoint x="519" y="681" as="sourcePoint" />
            <mxPoint x="599" y="681" as="targetPoint" />
          </mxGeometry>
        </mxCell>
        <mxCell id="UhTGrk6t8Puw2qYGNg0s-47" value="" style="endArrow=none;html=1;rounded=0;" edge="1" parent="1">
          <mxGeometry width="50" height="50" relative="1" as="geometry">
            <mxPoint x="599" y="721" as="sourcePoint" />
            <mxPoint x="599" y="681" as="targetPoint" />
          </mxGeometry>
        </mxCell>
        <mxCell id="UhTGrk6t8Puw2qYGNg0s-48" value="" style="endArrow=none;html=1;rounded=0;" edge="1" parent="1">
          <mxGeometry width="50" height="50" relative="1" as="geometry">
            <mxPoint x="599" y="681" as="sourcePoint" />
            <mxPoint x="679" y="681" as="targetPoint" />
          </mxGeometry>
        </mxCell>
        <mxCell id="UhTGrk6t8Puw2qYGNg0s-49" value="" style="endArrow=none;html=1;rounded=0;" edge="1" parent="1">
          <mxGeometry width="50" height="50" relative="1" as="geometry">
            <mxPoint x="679" y="721" as="sourcePoint" />
            <mxPoint x="679" y="681" as="targetPoint" />
          </mxGeometry>
        </mxCell>
        <mxCell id="UhTGrk6t8Puw2qYGNg0s-50" value="" style="endArrow=none;html=1;rounded=0;" edge="1" parent="1">
          <mxGeometry width="50" height="50" relative="1" as="geometry">
            <mxPoint x="679" y="681" as="sourcePoint" />
            <mxPoint x="759" y="681" as="targetPoint" />
          </mxGeometry>
        </mxCell>
        <mxCell id="UhTGrk6t8Puw2qYGNg0s-51" value="" style="endArrow=none;html=1;rounded=0;" edge="1" parent="1">
          <mxGeometry width="50" height="50" relative="1" as="geometry">
            <mxPoint x="759" y="721" as="sourcePoint" />
            <mxPoint x="759" y="681" as="targetPoint" />
          </mxGeometry>
        </mxCell>
        <mxCell id="UhTGrk6t8Puw2qYGNg0s-52" value="" style="endArrow=none;html=1;rounded=0;" edge="1" parent="1">
          <mxGeometry width="50" height="50" relative="1" as="geometry">
            <mxPoint x="759" y="681" as="sourcePoint" />
            <mxPoint x="839" y="681" as="targetPoint" />
          </mxGeometry>
        </mxCell>
        <mxCell id="UhTGrk6t8Puw2qYGNg0s-53" value="" style="endArrow=none;html=1;rounded=0;" edge="1" parent="1">
          <mxGeometry width="50" height="50" relative="1" as="geometry">
            <mxPoint x="839" y="721" as="sourcePoint" />
            <mxPoint x="839" y="681" as="targetPoint" />
          </mxGeometry>
        </mxCell>
        <mxCell id="UhTGrk6t8Puw2qYGNg0s-54" value="" style="endArrow=none;html=1;rounded=0;" edge="1" parent="1">
          <mxGeometry width="50" height="50" relative="1" as="geometry">
            <mxPoint x="839" y="681" as="sourcePoint" />
            <mxPoint x="919" y="681" as="targetPoint" />
          </mxGeometry>
        </mxCell>
        <mxCell id="UhTGrk6t8Puw2qYGNg0s-55" value="" style="endArrow=none;html=1;rounded=0;" edge="1" parent="1">
          <mxGeometry width="50" height="50" relative="1" as="geometry">
            <mxPoint x="919" y="721" as="sourcePoint" />
            <mxPoint x="919" y="681" as="targetPoint" />
          </mxGeometry>
        </mxCell>
        <mxCell id="UhTGrk6t8Puw2qYGNg0s-56" value="" style="endArrow=none;html=1;rounded=0;" edge="1" parent="1">
          <mxGeometry width="50" height="50" relative="1" as="geometry">
            <mxPoint x="919" y="681" as="sourcePoint" />
            <mxPoint x="999" y="681" as="targetPoint" />
          </mxGeometry>
        </mxCell>
        <mxCell id="UhTGrk6t8Puw2qYGNg0s-57" value="" style="endArrow=none;html=1;rounded=0;" edge="1" parent="1">
          <mxGeometry width="50" height="50" relative="1" as="geometry">
            <mxPoint x="999" y="721" as="sourcePoint" />
            <mxPoint x="999" y="681" as="targetPoint" />
          </mxGeometry>
        </mxCell>
        <mxCell id="UhTGrk6t8Puw2qYGNg0s-58" value="&lt;font style=&quot;font-size: 24px;&quot;&gt;0x0&lt;/font&gt;" style="text;html=1;align=center;verticalAlign=middle;resizable=0;points=[];autosize=1;strokeColor=none;fillColor=none;" vertex="1" parent="1">
          <mxGeometry x="368" y="683" width="60" height="40" as="geometry" />
        </mxCell>
        <mxCell id="UhTGrk6t8Puw2qYGNg0s-59" value="&lt;font style=&quot;font-size: 24px;&quot;&gt;0x1&lt;/font&gt;" style="text;html=1;align=center;verticalAlign=middle;resizable=0;points=[];autosize=1;strokeColor=none;fillColor=none;" vertex="1" parent="1">
          <mxGeometry x="449" y="683" width="60" height="40" as="geometry" />
        </mxCell>
        <mxCell id="UhTGrk6t8Puw2qYGNg0s-60" value="&lt;font style=&quot;font-size: 24px;&quot;&gt;0x2&lt;/font&gt;" style="text;html=1;align=center;verticalAlign=middle;resizable=0;points=[];autosize=1;strokeColor=none;fillColor=none;" vertex="1" parent="1">
          <mxGeometry x="529" y="683" width="60" height="40" as="geometry" />
        </mxCell>
        <mxCell id="UhTGrk6t8Puw2qYGNg0s-61" value="&lt;font style=&quot;font-size: 24px;&quot;&gt;0x3&lt;/font&gt;" style="text;html=1;align=center;verticalAlign=middle;resizable=0;points=[];autosize=1;strokeColor=none;fillColor=none;" vertex="1" parent="1">
          <mxGeometry x="606" y="683" width="60" height="40" as="geometry" />
        </mxCell>
        <mxCell id="UhTGrk6t8Puw2qYGNg0s-62" value="&lt;font style=&quot;font-size: 24px;&quot;&gt;0x4&lt;/font&gt;" style="text;html=1;align=center;verticalAlign=middle;resizable=0;points=[];autosize=1;strokeColor=none;fillColor=none;" vertex="1" parent="1">
          <mxGeometry x="685" y="683" width="60" height="40" as="geometry" />
        </mxCell>
        <mxCell id="UhTGrk6t8Puw2qYGNg0s-63" value="&lt;font style=&quot;font-size: 24px;&quot;&gt;0x5&lt;/font&gt;" style="text;html=1;align=center;verticalAlign=middle;resizable=0;points=[];autosize=1;strokeColor=none;fillColor=none;" vertex="1" parent="1">
          <mxGeometry x="768" y="683" width="60" height="40" as="geometry" />
        </mxCell>
        <mxCell id="UhTGrk6t8Puw2qYGNg0s-64" value="&lt;span style=&quot;font-size: 24px;&quot;&gt;0x6&lt;/span&gt;" style="text;html=1;align=center;verticalAlign=middle;resizable=0;points=[];autosize=1;strokeColor=none;fillColor=none;" vertex="1" parent="1">
          <mxGeometry x="849" y="683" width="60" height="40" as="geometry" />
        </mxCell>
        <mxCell id="UhTGrk6t8Puw2qYGNg0s-65" value="&lt;font style=&quot;font-size: 24px;&quot;&gt;0x7&lt;/font&gt;" style="text;html=1;align=center;verticalAlign=middle;resizable=0;points=[];autosize=1;strokeColor=none;fillColor=none;" vertex="1" parent="1">
          <mxGeometry x="931" y="683" width="60" height="40" as="geometry" />
        </mxCell>
        <mxCell id="UhTGrk6t8Puw2qYGNg0s-66" value="" style="endArrow=none;html=1;rounded=0;" edge="1" parent="1">
          <mxGeometry width="50" height="50" relative="1" as="geometry">
            <mxPoint x="1120" y="721" as="sourcePoint" />
            <mxPoint x="1120" y="681" as="targetPoint" />
          </mxGeometry>
        </mxCell>
        <mxCell id="UhTGrk6t8Puw2qYGNg0s-67" value="" style="endArrow=none;html=1;rounded=0;" edge="1" parent="1">
          <mxGeometry width="50" height="50" relative="1" as="geometry">
            <mxPoint x="1120" y="681" as="sourcePoint" />
            <mxPoint x="1200" y="681" as="targetPoint" />
          </mxGeometry>
        </mxCell>
        <mxCell id="UhTGrk6t8Puw2qYGNg0s-68" value="" style="endArrow=none;html=1;rounded=0;" edge="1" parent="1">
          <mxGeometry width="50" height="50" relative="1" as="geometry">
            <mxPoint x="1200" y="721" as="sourcePoint" />
            <mxPoint x="1200" y="681" as="targetPoint" />
          </mxGeometry>
        </mxCell>
        <mxCell id="UhTGrk6t8Puw2qYGNg0s-69" value="" style="endArrow=none;html=1;rounded=0;" edge="1" parent="1">
          <mxGeometry width="50" height="50" relative="1" as="geometry">
            <mxPoint x="1200" y="681" as="sourcePoint" />
            <mxPoint x="1280" y="681" as="targetPoint" />
          </mxGeometry>
        </mxCell>
        <mxCell id="UhTGrk6t8Puw2qYGNg0s-70" value="" style="endArrow=none;html=1;rounded=0;" edge="1" parent="1">
          <mxGeometry width="50" height="50" relative="1" as="geometry">
            <mxPoint x="1280" y="721" as="sourcePoint" />
            <mxPoint x="1280" y="681" as="targetPoint" />
          </mxGeometry>
        </mxCell>
        <mxCell id="UhTGrk6t8Puw2qYGNg0s-71" value="" style="endArrow=none;html=1;rounded=0;" edge="1" parent="1">
          <mxGeometry width="50" height="50" relative="1" as="geometry">
            <mxPoint x="1280" y="681" as="sourcePoint" />
            <mxPoint x="1360" y="681" as="targetPoint" />
          </mxGeometry>
        </mxCell>
        <mxCell id="UhTGrk6t8Puw2qYGNg0s-72" value="" style="endArrow=none;html=1;rounded=0;" edge="1" parent="1">
          <mxGeometry width="50" height="50" relative="1" as="geometry">
            <mxPoint x="1360" y="721" as="sourcePoint" />
            <mxPoint x="1360" y="681" as="targetPoint" />
          </mxGeometry>
        </mxCell>
        <mxCell id="UhTGrk6t8Puw2qYGNg0s-73" value="&lt;font style=&quot;font-size: 24px;&quot;&gt;0x507&lt;/font&gt;" style="text;html=1;align=center;verticalAlign=middle;resizable=0;points=[];autosize=1;strokeColor=none;fillColor=none;" vertex="1" parent="1">
          <mxGeometry x="1114" y="683" width="90" height="40" as="geometry" />
        </mxCell>
        <mxCell id="UhTGrk6t8Puw2qYGNg0s-74" value="&lt;font style=&quot;font-size: 24px;&quot;&gt;0x508&lt;/font&gt;" style="text;html=1;align=center;verticalAlign=middle;resizable=0;points=[];autosize=1;strokeColor=none;fillColor=none;" vertex="1" parent="1">
          <mxGeometry x="1195" y="683" width="90" height="40" as="geometry" />
        </mxCell>
        <mxCell id="UhTGrk6t8Puw2qYGNg0s-75" value="&lt;font style=&quot;font-size: 24px;&quot;&gt;0x509&lt;/font&gt;" style="text;html=1;align=center;verticalAlign=middle;resizable=0;points=[];autosize=1;strokeColor=none;fillColor=none;" vertex="1" parent="1">
          <mxGeometry x="1275" y="683" width="90" height="40" as="geometry" />
        </mxCell>
        <mxCell id="UhTGrk6t8Puw2qYGNg0s-76" value="" style="endArrow=none;html=1;rounded=0;exitX=1.013;exitY=0.933;exitDx=0;exitDy=0;exitPerimeter=0;" edge="1" parent="1">
          <mxGeometry width="50" height="50" relative="1" as="geometry">
            <mxPoint x="1360.17" y="720.3199999999999" as="sourcePoint" />
            <mxPoint x="1600" y="720" as="targetPoint" />
          </mxGeometry>
        </mxCell>
        <mxCell id="UhTGrk6t8Puw2qYGNg0s-77" value="&lt;font style=&quot;font-size: 72px;&quot;&gt;...&lt;/font&gt;" style="text;html=1;align=center;verticalAlign=middle;resizable=0;points=[];autosize=1;strokeColor=none;fillColor=none;" vertex="1" parent="1">
          <mxGeometry x="1024" y="390" width="80" height="100" as="geometry" />
        </mxCell>
        <mxCell id="UhTGrk6t8Puw2qYGNg0s-78" value="&lt;font style=&quot;font-size: 72px;&quot;&gt;...&lt;/font&gt;" style="text;html=1;align=center;verticalAlign=middle;resizable=0;points=[];autosize=1;strokeColor=none;fillColor=none;" vertex="1" parent="1">
          <mxGeometry x="1024" y="469" width="80" height="100" as="geometry" />
        </mxCell>
        <mxCell id="UhTGrk6t8Puw2qYGNg0s-79" value="&lt;font style=&quot;font-size: 24px;&quot;&gt;0x1&lt;/font&gt;" style="text;html=1;align=center;verticalAlign=middle;resizable=0;points=[];autosize=1;strokeColor=none;fillColor=none;" vertex="1" parent="1">
          <mxGeometry x="1413" y="453" width="60" height="40" as="geometry" />
        </mxCell>
        <mxCell id="UhTGrk6t8Puw2qYGNg0s-90" value="" style="endArrow=none;html=1;rounded=0;" edge="1" parent="1">
          <mxGeometry width="50" height="50" relative="1" as="geometry">
            <mxPoint x="1600" y="721" as="sourcePoint" />
            <mxPoint x="1600" y="681" as="targetPoint" />
          </mxGeometry>
        </mxCell>
        <mxCell id="UhTGrk6t8Puw2qYGNg0s-91" value="" style="endArrow=none;html=1;rounded=0;" edge="1" parent="1">
          <mxGeometry width="50" height="50" relative="1" as="geometry">
            <mxPoint x="1600" y="681" as="sourcePoint" />
            <mxPoint x="1680" y="681" as="targetPoint" />
          </mxGeometry>
        </mxCell>
        <mxCell id="UhTGrk6t8Puw2qYGNg0s-92" value="" style="endArrow=none;html=1;rounded=0;" edge="1" parent="1">
          <mxGeometry width="50" height="50" relative="1" as="geometry">
            <mxPoint x="1680" y="721" as="sourcePoint" />
            <mxPoint x="1680" y="681" as="targetPoint" />
          </mxGeometry>
        </mxCell>
        <mxCell id="UhTGrk6t8Puw2qYGNg0s-93" value="" style="endArrow=none;html=1;rounded=0;" edge="1" parent="1">
          <mxGeometry width="50" height="50" relative="1" as="geometry">
            <mxPoint x="1680" y="681" as="sourcePoint" />
            <mxPoint x="1760" y="681" as="targetPoint" />
          </mxGeometry>
        </mxCell>
        <mxCell id="UhTGrk6t8Puw2qYGNg0s-94" value="" style="endArrow=none;html=1;rounded=0;" edge="1" parent="1">
          <mxGeometry width="50" height="50" relative="1" as="geometry">
            <mxPoint x="1760" y="721" as="sourcePoint" />
            <mxPoint x="1760" y="681" as="targetPoint" />
          </mxGeometry>
        </mxCell>
        <mxCell id="UhTGrk6t8Puw2qYGNg0s-95" value="" style="endArrow=none;html=1;rounded=0;" edge="1" parent="1">
          <mxGeometry width="50" height="50" relative="1" as="geometry">
            <mxPoint x="1760" y="681" as="sourcePoint" />
            <mxPoint x="1840" y="681" as="targetPoint" />
          </mxGeometry>
        </mxCell>
        <mxCell id="UhTGrk6t8Puw2qYGNg0s-96" value="" style="endArrow=none;html=1;rounded=0;" edge="1" parent="1">
          <mxGeometry width="50" height="50" relative="1" as="geometry">
            <mxPoint x="1840" y="721" as="sourcePoint" />
            <mxPoint x="1840" y="681" as="targetPoint" />
          </mxGeometry>
        </mxCell>
        <mxCell id="UhTGrk6t8Puw2qYGNg0s-97" value="&lt;font style=&quot;font-size: 24px;&quot;&gt;0x1&lt;/font&gt;" style="text;html=1;align=center;verticalAlign=middle;resizable=0;points=[];autosize=1;strokeColor=none;fillColor=none;" vertex="1" parent="1">
          <mxGeometry x="1609" y="683" width="60" height="40" as="geometry" />
        </mxCell>
        <mxCell id="UhTGrk6t8Puw2qYGNg0s-98" value="&lt;font style=&quot;font-size: 24px;&quot;&gt;0x2&lt;/font&gt;" style="text;html=1;align=center;verticalAlign=middle;resizable=0;points=[];autosize=1;strokeColor=none;fillColor=none;" vertex="1" parent="1">
          <mxGeometry x="1690" y="683" width="60" height="40" as="geometry" />
        </mxCell>
        <mxCell id="UhTGrk6t8Puw2qYGNg0s-99" value="&lt;font style=&quot;font-size: 24px;&quot;&gt;0x3&lt;/font&gt;" style="text;html=1;align=center;verticalAlign=middle;resizable=0;points=[];autosize=1;strokeColor=none;fillColor=none;" vertex="1" parent="1">
          <mxGeometry x="1770" y="683" width="60" height="40" as="geometry" />
        </mxCell>
        <mxCell id="UhTGrk6t8Puw2qYGNg0s-111" value="" style="endArrow=none;html=1;rounded=0;" edge="1" parent="1">
          <mxGeometry width="50" height="50" relative="1" as="geometry">
            <mxPoint x="180" y="559" as="sourcePoint" />
            <mxPoint x="180" y="519" as="targetPoint" />
          </mxGeometry>
        </mxCell>
        <mxCell id="UhTGrk6t8Puw2qYGNg0s-112" value="" style="endArrow=none;html=1;rounded=0;" edge="1" parent="1">
          <mxGeometry width="50" height="50" relative="1" as="geometry">
            <mxPoint x="180" y="519" as="sourcePoint" />
            <mxPoint x="240" y="519" as="targetPoint" />
          </mxGeometry>
        </mxCell>
        <mxCell id="UhTGrk6t8Puw2qYGNg0s-113" value="" style="endArrow=none;html=1;rounded=0;" edge="1" parent="1">
          <mxGeometry width="50" height="50" relative="1" as="geometry">
            <mxPoint x="240" y="559" as="sourcePoint" />
            <mxPoint x="240" y="519" as="targetPoint" />
          </mxGeometry>
        </mxCell>
        <mxCell id="UhTGrk6t8Puw2qYGNg0s-114" value="" style="endArrow=none;html=1;rounded=0;" edge="1" parent="1">
          <mxGeometry width="50" height="50" relative="1" as="geometry">
            <mxPoint x="240" y="559" as="sourcePoint" />
            <mxPoint x="490" y="559" as="targetPoint" />
          </mxGeometry>
        </mxCell>
        <mxCell id="UhTGrk6t8Puw2qYGNg0s-115" value="" style="endArrow=none;html=1;rounded=0;" edge="1" parent="1">
          <mxGeometry width="50" height="50" relative="1" as="geometry">
            <mxPoint x="490" y="559" as="sourcePoint" />
            <mxPoint x="1000" y="560" as="targetPoint" />
          </mxGeometry>
        </mxCell>
        <mxCell id="UhTGrk6t8Puw2qYGNg0s-116" value="&lt;font style=&quot;font-size: 24px;&quot;&gt;Activation&lt;/font&gt;" style="text;html=1;align=center;verticalAlign=middle;whiteSpace=wrap;rounded=0;" vertex="1" parent="1">
          <mxGeometry x="70" y="539" width="60" height="30" as="geometry" />
        </mxCell>
        <mxCell id="UhTGrk6t8Puw2qYGNg0s-117" value="" style="endArrow=none;html=1;rounded=0;" edge="1" parent="1">
          <mxGeometry width="50" height="50" relative="1" as="geometry">
            <mxPoint x="160" y="558" as="sourcePoint" />
            <mxPoint x="180" y="558" as="targetPoint" />
          </mxGeometry>
        </mxCell>
        <mxCell id="UhTGrk6t8Puw2qYGNg0s-118" value="" style="endArrow=none;html=1;rounded=0;" edge="1" parent="1">
          <mxGeometry width="50" height="50" relative="1" as="geometry">
            <mxPoint x="180" y="640" as="sourcePoint" />
            <mxPoint x="180" y="600" as="targetPoint" />
          </mxGeometry>
        </mxCell>
        <mxCell id="UhTGrk6t8Puw2qYGNg0s-119" value="" style="endArrow=none;html=1;rounded=0;" edge="1" parent="1">
          <mxGeometry width="50" height="50" relative="1" as="geometry">
            <mxPoint x="180" y="600" as="sourcePoint" />
            <mxPoint x="240" y="600" as="targetPoint" />
          </mxGeometry>
        </mxCell>
        <mxCell id="UhTGrk6t8Puw2qYGNg0s-120" value="" style="endArrow=none;html=1;rounded=0;" edge="1" parent="1">
          <mxGeometry width="50" height="50" relative="1" as="geometry">
            <mxPoint x="240" y="640" as="sourcePoint" />
            <mxPoint x="240" y="600" as="targetPoint" />
          </mxGeometry>
        </mxCell>
        <mxCell id="UhTGrk6t8Puw2qYGNg0s-121" value="" style="endArrow=none;html=1;rounded=0;" edge="1" parent="1">
          <mxGeometry width="50" height="50" relative="1" as="geometry">
            <mxPoint x="240" y="640" as="sourcePoint" />
            <mxPoint x="490" y="640" as="targetPoint" />
          </mxGeometry>
        </mxCell>
        <mxCell id="UhTGrk6t8Puw2qYGNg0s-122" value="" style="endArrow=none;html=1;rounded=0;" edge="1" parent="1">
          <mxGeometry width="50" height="50" relative="1" as="geometry">
            <mxPoint x="490" y="640" as="sourcePoint" />
            <mxPoint x="1000" y="640" as="targetPoint" />
          </mxGeometry>
        </mxCell>
        <mxCell id="UhTGrk6t8Puw2qYGNg0s-123" value="&lt;font style=&quot;font-size: 24px;&quot;&gt;Sync&lt;/font&gt;" style="text;html=1;align=center;verticalAlign=middle;whiteSpace=wrap;rounded=0;" vertex="1" parent="1">
          <mxGeometry x="89" y="620" width="60" height="30" as="geometry" />
        </mxCell>
        <mxCell id="UhTGrk6t8Puw2qYGNg0s-124" value="" style="endArrow=none;html=1;rounded=0;" edge="1" parent="1">
          <mxGeometry width="50" height="50" relative="1" as="geometry">
            <mxPoint x="160" y="639" as="sourcePoint" />
            <mxPoint x="180" y="639" as="targetPoint" />
          </mxGeometry>
        </mxCell>
        <mxCell id="UhTGrk6t8Puw2qYGNg0s-125" value="&lt;font style=&quot;font-size: 72px;&quot;&gt;...&lt;/font&gt;" style="text;html=1;align=center;verticalAlign=middle;resizable=0;points=[];autosize=1;strokeColor=none;fillColor=none;" vertex="1" parent="1">
          <mxGeometry x="1024" y="550" width="80" height="100" as="geometry" />
        </mxCell>
        <mxCell id="UhTGrk6t8Puw2qYGNg0s-126" value="" style="endArrow=none;html=1;rounded=0;" edge="1" parent="1">
          <mxGeometry width="50" height="50" relative="1" as="geometry">
            <mxPoint x="1123" y="638.33" as="sourcePoint" />
            <mxPoint x="1420" y="638" as="targetPoint" />
          </mxGeometry>
        </mxCell>
        <mxCell id="UhTGrk6t8Puw2qYGNg0s-127" value="" style="endArrow=none;html=1;rounded=0;" edge="1" parent="1">
          <mxGeometry width="50" height="50" relative="1" as="geometry">
            <mxPoint x="1124" y="560" as="sourcePoint" />
            <mxPoint x="1840" y="560" as="targetPoint" />
          </mxGeometry>
        </mxCell>
        <mxCell id="UhTGrk6t8Puw2qYGNg0s-128" value="&lt;font style=&quot;font-size: 72px;&quot;&gt;...&lt;/font&gt;" style="text;html=1;align=center;verticalAlign=middle;resizable=0;points=[];autosize=1;strokeColor=none;fillColor=none;" vertex="1" parent="1">
          <mxGeometry x="1024" y="630" width="80" height="100" as="geometry" />
        </mxCell>
        <mxCell id="UhTGrk6t8Puw2qYGNg0s-129" value="" style="endArrow=none;html=1;rounded=0;" edge="1" parent="1">
          <mxGeometry width="50" height="50" relative="1" as="geometry">
            <mxPoint x="1420" y="640" as="sourcePoint" />
            <mxPoint x="1420" y="600" as="targetPoint" />
          </mxGeometry>
        </mxCell>
        <mxCell id="UhTGrk6t8Puw2qYGNg0s-130" value="" style="endArrow=none;html=1;rounded=0;" edge="1" parent="1">
          <mxGeometry width="50" height="50" relative="1" as="geometry">
            <mxPoint x="1420" y="600" as="sourcePoint" />
            <mxPoint x="1460" y="600" as="targetPoint" />
          </mxGeometry>
        </mxCell>
        <mxCell id="UhTGrk6t8Puw2qYGNg0s-131" value="" style="endArrow=none;html=1;rounded=0;" edge="1" parent="1">
          <mxGeometry width="50" height="50" relative="1" as="geometry">
            <mxPoint x="1460" y="640" as="sourcePoint" />
            <mxPoint x="1460" y="600" as="targetPoint" />
          </mxGeometry>
        </mxCell>
        <mxCell id="UhTGrk6t8Puw2qYGNg0s-132" value="" style="endArrow=none;html=1;rounded=0;" edge="1" parent="1">
          <mxGeometry width="50" height="50" relative="1" as="geometry">
            <mxPoint x="1460" y="640" as="sourcePoint" />
            <mxPoint x="1840" y="640" as="targetPoint" />
          </mxGeometry>
        </mxCell>
        <mxCell id="UhTGrk6t8Puw2qYGNg0s-133" value="" style="endArrow=none;html=1;rounded=0;" edge="1" parent="1">
          <mxGeometry width="50" height="50" relative="1" as="geometry">
            <mxPoint x="1520" y="319.13" as="sourcePoint" />
            <mxPoint x="1520" y="279.13" as="targetPoint" />
          </mxGeometry>
        </mxCell>
        <mxCell id="UhTGrk6t8Puw2qYGNg0s-134" value="" style="endArrow=none;html=1;rounded=0;" edge="1" parent="1">
          <mxGeometry width="50" height="50" relative="1" as="geometry">
            <mxPoint x="1520" y="279.13" as="sourcePoint" />
            <mxPoint x="1560" y="279.13" as="targetPoint" />
          </mxGeometry>
        </mxCell>
        <mxCell id="UhTGrk6t8Puw2qYGNg0s-135" value="" style="endArrow=none;html=1;rounded=0;" edge="1" parent="1">
          <mxGeometry width="50" height="50" relative="1" as="geometry">
            <mxPoint x="1560" y="319.13" as="sourcePoint" />
            <mxPoint x="1560" y="279.13" as="targetPoint" />
          </mxGeometry>
        </mxCell>
        <mxCell id="UhTGrk6t8Puw2qYGNg0s-136" value="" style="endArrow=none;html=1;rounded=0;" edge="1" parent="1">
          <mxGeometry width="50" height="50" relative="1" as="geometry">
            <mxPoint x="1560" y="319.13" as="sourcePoint" />
            <mxPoint x="1600" y="319.13" as="targetPoint" />
          </mxGeometry>
        </mxCell>
        <mxCell id="UhTGrk6t8Puw2qYGNg0s-137" value="" style="endArrow=none;html=1;rounded=0;" edge="1" parent="1">
          <mxGeometry width="50" height="50" relative="1" as="geometry">
            <mxPoint x="1600" y="319.13" as="sourcePoint" />
            <mxPoint x="1600" y="279.13" as="targetPoint" />
          </mxGeometry>
        </mxCell>
        <mxCell id="UhTGrk6t8Puw2qYGNg0s-138" value="" style="endArrow=none;html=1;rounded=0;" edge="1" parent="1">
          <mxGeometry width="50" height="50" relative="1" as="geometry">
            <mxPoint x="1600" y="279.13" as="sourcePoint" />
            <mxPoint x="1640" y="279.13" as="targetPoint" />
          </mxGeometry>
        </mxCell>
        <mxCell id="UhTGrk6t8Puw2qYGNg0s-139" value="" style="endArrow=none;html=1;rounded=0;" edge="1" parent="1">
          <mxGeometry width="50" height="50" relative="1" as="geometry">
            <mxPoint x="1640" y="319.13" as="sourcePoint" />
            <mxPoint x="1640" y="279.13" as="targetPoint" />
          </mxGeometry>
        </mxCell>
        <mxCell id="UhTGrk6t8Puw2qYGNg0s-140" value="" style="endArrow=none;html=1;rounded=0;" edge="1" parent="1">
          <mxGeometry width="50" height="50" relative="1" as="geometry">
            <mxPoint x="1640" y="319.13" as="sourcePoint" />
            <mxPoint x="1680" y="319.13" as="targetPoint" />
          </mxGeometry>
        </mxCell>
        <mxCell id="UhTGrk6t8Puw2qYGNg0s-141" value="" style="endArrow=none;html=1;rounded=0;" edge="1" parent="1">
          <mxGeometry width="50" height="50" relative="1" as="geometry">
            <mxPoint x="1680" y="319.13" as="sourcePoint" />
            <mxPoint x="1680" y="279.13" as="targetPoint" />
          </mxGeometry>
        </mxCell>
        <mxCell id="UhTGrk6t8Puw2qYGNg0s-142" value="" style="endArrow=none;html=1;rounded=0;" edge="1" parent="1">
          <mxGeometry width="50" height="50" relative="1" as="geometry">
            <mxPoint x="1680" y="279.13" as="sourcePoint" />
            <mxPoint x="1720" y="279.13" as="targetPoint" />
          </mxGeometry>
        </mxCell>
        <mxCell id="UhTGrk6t8Puw2qYGNg0s-143" value="" style="endArrow=none;html=1;rounded=0;" edge="1" parent="1">
          <mxGeometry width="50" height="50" relative="1" as="geometry">
            <mxPoint x="1720" y="319.13" as="sourcePoint" />
            <mxPoint x="1720" y="279.13" as="targetPoint" />
          </mxGeometry>
        </mxCell>
        <mxCell id="UhTGrk6t8Puw2qYGNg0s-144" value="" style="endArrow=none;html=1;rounded=0;" edge="1" parent="1">
          <mxGeometry width="50" height="50" relative="1" as="geometry">
            <mxPoint x="1720" y="319.13" as="sourcePoint" />
            <mxPoint x="1760" y="319.13" as="targetPoint" />
          </mxGeometry>
        </mxCell>
        <mxCell id="UhTGrk6t8Puw2qYGNg0s-145" value="" style="endArrow=none;html=1;rounded=0;" edge="1" parent="1">
          <mxGeometry width="50" height="50" relative="1" as="geometry">
            <mxPoint x="1760" y="319.13" as="sourcePoint" />
            <mxPoint x="1760" y="279.13" as="targetPoint" />
          </mxGeometry>
        </mxCell>
        <mxCell id="UhTGrk6t8Puw2qYGNg0s-146" value="" style="endArrow=none;html=1;rounded=0;" edge="1" parent="1">
          <mxGeometry width="50" height="50" relative="1" as="geometry">
            <mxPoint x="1760" y="320.13" as="sourcePoint" />
            <mxPoint x="1760" y="280.13" as="targetPoint" />
          </mxGeometry>
        </mxCell>
        <mxCell id="UhTGrk6t8Puw2qYGNg0s-147" value="" style="endArrow=none;html=1;rounded=0;" edge="1" parent="1">
          <mxGeometry width="50" height="50" relative="1" as="geometry">
            <mxPoint x="1760" y="280.13" as="sourcePoint" />
            <mxPoint x="1800" y="280.13" as="targetPoint" />
          </mxGeometry>
        </mxCell>
        <mxCell id="UhTGrk6t8Puw2qYGNg0s-148" value="" style="endArrow=none;html=1;rounded=0;" edge="1" parent="1">
          <mxGeometry width="50" height="50" relative="1" as="geometry">
            <mxPoint x="1800" y="320.13" as="sourcePoint" />
            <mxPoint x="1800" y="280.13" as="targetPoint" />
          </mxGeometry>
        </mxCell>
        <mxCell id="UhTGrk6t8Puw2qYGNg0s-149" value="" style="endArrow=none;html=1;rounded=0;" edge="1" parent="1">
          <mxGeometry width="50" height="50" relative="1" as="geometry">
            <mxPoint x="1800" y="320.13" as="sourcePoint" />
            <mxPoint x="1840" y="320.13" as="targetPoint" />
          </mxGeometry>
        </mxCell>
        <mxCell id="UhTGrk6t8Puw2qYGNg0s-150" value="" style="endArrow=none;html=1;rounded=0;" edge="1" parent="1">
          <mxGeometry width="50" height="50" relative="1" as="geometry">
            <mxPoint x="1840" y="320.13" as="sourcePoint" />
            <mxPoint x="1840" y="280.13" as="targetPoint" />
          </mxGeometry>
        </mxCell>
        <mxCell id="UhTGrk6t8Puw2qYGNg0s-154" value="" style="endArrow=none;html=1;rounded=0;" edge="1" parent="1">
          <mxGeometry width="50" height="50" relative="1" as="geometry">
            <mxPoint x="840" y="320" as="sourcePoint" />
            <mxPoint x="840" y="280" as="targetPoint" />
          </mxGeometry>
        </mxCell>
        <mxCell id="UhTGrk6t8Puw2qYGNg0s-155" value="" style="endArrow=none;html=1;rounded=0;" edge="1" parent="1">
          <mxGeometry width="50" height="50" relative="1" as="geometry">
            <mxPoint x="840" y="280" as="sourcePoint" />
            <mxPoint x="880" y="280" as="targetPoint" />
          </mxGeometry>
        </mxCell>
        <mxCell id="UhTGrk6t8Puw2qYGNg0s-156" value="" style="endArrow=none;html=1;rounded=0;" edge="1" parent="1">
          <mxGeometry width="50" height="50" relative="1" as="geometry">
            <mxPoint x="880" y="320" as="sourcePoint" />
            <mxPoint x="880" y="280" as="targetPoint" />
          </mxGeometry>
        </mxCell>
        <mxCell id="UhTGrk6t8Puw2qYGNg0s-157" value="" style="endArrow=none;html=1;rounded=0;" edge="1" parent="1">
          <mxGeometry width="50" height="50" relative="1" as="geometry">
            <mxPoint x="880" y="320" as="sourcePoint" />
            <mxPoint x="920" y="320" as="targetPoint" />
          </mxGeometry>
        </mxCell>
        <mxCell id="UhTGrk6t8Puw2qYGNg0s-158" value="" style="endArrow=none;html=1;rounded=0;" edge="1" parent="1">
          <mxGeometry width="50" height="50" relative="1" as="geometry">
            <mxPoint x="920" y="320" as="sourcePoint" />
            <mxPoint x="920" y="280" as="targetPoint" />
          </mxGeometry>
        </mxCell>
        <mxCell id="UhTGrk6t8Puw2qYGNg0s-159" value="" style="endArrow=none;html=1;rounded=0;" edge="1" parent="1">
          <mxGeometry width="50" height="50" relative="1" as="geometry">
            <mxPoint x="920" y="280" as="sourcePoint" />
            <mxPoint x="960" y="280" as="targetPoint" />
          </mxGeometry>
        </mxCell>
        <mxCell id="UhTGrk6t8Puw2qYGNg0s-160" value="" style="endArrow=none;html=1;rounded=0;" edge="1" parent="1">
          <mxGeometry width="50" height="50" relative="1" as="geometry">
            <mxPoint x="960" y="320" as="sourcePoint" />
            <mxPoint x="960" y="280" as="targetPoint" />
          </mxGeometry>
        </mxCell>
        <mxCell id="UhTGrk6t8Puw2qYGNg0s-161" value="" style="endArrow=none;html=1;rounded=0;" edge="1" parent="1">
          <mxGeometry width="50" height="50" relative="1" as="geometry">
            <mxPoint x="960" y="320" as="sourcePoint" />
            <mxPoint x="1000" y="320" as="targetPoint" />
          </mxGeometry>
        </mxCell>
      </root>
    </mxGraphModel>
  </diagram>
</mxfile>
